<svg width="101" height="38" viewBox="0 0 101 38" fill="none" xmlns="http://www.w3.org/2000/svg">
<g clip-path="url(#clip0_1540_310)">
<mask id="mask0_1540_310" style="mask-type:luminance" maskUnits="userSpaceOnUse" x="0" y="0" width="101" height="38">
<path d="M100.937 0H0V37.1413H100.937V0Z" fill="white"/>
</mask>
<g mask="url(#mask0_1540_310)">
<path d="M4.0413 25.6681C2.80995 24.9865 1.78857 23.9809 1.08778 22.7603C0.362635 21.5164 6.10352e-05 20.1158 6.10352e-05 18.5585C6.10352e-05 17.0012 0.362635 15.6047 1.08778 14.369C1.79128 13.1539 2.81229 12.1532 4.0413 11.4742C5.29028 10.7788 6.69864 10.4199 8.12814 10.4331C9.5651 10.4183 10.9812 10.7771 12.2378 11.4742C13.4648 12.1519 14.4825 13.1531 15.1799 14.369C15.8963 15.6047 16.2551 17.0012 16.2563 18.5585C16.2574 20.1158 15.8986 21.5164 15.1799 22.7603C14.4852 23.9816 13.4672 24.9878 12.2378 25.6681C10.9814 26.3657 9.56516 26.7245 8.12814 26.7094C6.69858 26.7227 5.29018 26.3639 4.0413 25.6681ZM10.944 23.7216C11.7737 23.2352 12.4456 22.5198 12.879 21.6611C13.3469 20.7681 13.5808 19.7339 13.5808 18.5585C13.5808 17.383 13.3469 16.3529 12.879 15.4681C12.4449 14.6158 11.7727 13.908 10.944 13.4304C10.1205 12.9561 9.18193 12.719 8.12814 12.719C7.07435 12.719 6.13545 12.9555 5.31147 13.4287C4.48464 13.907 3.81428 14.6148 3.38165 15.4664C2.91381 16.3518 2.67989 17.3819 2.67989 18.5567C2.67989 19.7316 2.91381 20.7658 3.38165 21.6594C3.81364 22.5174 4.48363 23.2327 5.31147 23.7199C6.13604 24.2006 7.07492 24.4409 8.12814 24.4409C9.18136 24.4409 10.12 24.2012 10.944 23.7216Z" fill="white"/>
<path d="M29.1287 10.6377V12.7667H24.4744V26.5491H21.8647V12.7667H17.1866V10.6377H29.1287Z" fill="white"/>
<path d="M34.1004 25.6687C32.869 24.987 31.8477 23.9814 31.1469 22.7608C30.4217 21.517 30.0591 20.1164 30.0591 18.5591C30.0591 17.0017 30.4217 15.6052 31.1469 14.3696C31.8504 13.1544 32.8714 12.1538 34.1004 11.4748C35.3583 10.7915 36.7671 10.4336 38.1986 10.4336C39.6302 10.4336 41.039 10.7915 42.2969 11.4748C43.5239 12.1525 44.5415 13.1537 45.239 14.3696C45.9571 15.6059 46.3162 17.0024 46.3162 18.5591C46.3162 20.1158 45.9574 21.5164 45.2399 22.7608C44.5452 23.9821 43.5271 24.9883 42.2978 25.6687C41.0399 26.352 39.6311 26.71 38.1995 26.71C36.768 26.71 35.3592 26.352 34.1013 25.6687H34.1004ZM41.003 23.7222C41.8329 23.2358 42.5047 22.5204 42.9381 21.6617C43.4059 20.7687 43.6399 19.7345 43.6399 18.5591C43.6399 17.3836 43.4059 16.3535 42.9381 15.4687C42.504 14.6164 41.8317 13.9086 41.003 13.431C40.1797 12.9567 39.241 12.7196 38.1873 12.7196C37.1334 12.7196 36.1945 12.9561 35.3706 13.4292C34.5423 13.9071 33.8704 14.6149 33.4364 15.467C32.9685 16.3523 32.7346 17.3825 32.7346 18.5573C32.7346 19.7322 32.9685 20.7664 33.4364 21.66C33.8695 22.5185 34.5411 23.2339 35.3706 23.7205C36.1951 24.2012 37.134 24.4415 38.1873 24.4415C39.2405 24.4415 40.179 24.2018 41.003 23.7222Z" fill="white"/>
<path d="M62.5204 10.6377L56.544 26.5491H53.5221L47.5239 10.6377H50.3168L55.0335 23.8711L59.7703 10.6377H62.5204Z" fill="white"/>
<path d="M67.7691 25.6687C66.5377 24.9868 65.5164 23.9813 64.8156 22.7608C64.0904 21.517 63.7278 20.1164 63.7278 18.5591C63.7278 17.0017 64.0904 15.6052 64.8156 14.3696C65.5195 13.1546 66.5402 12.154 67.7691 11.4748C69.0269 10.7915 70.4359 10.4336 71.8674 10.4336C73.299 10.4336 74.7074 10.7915 75.9658 11.4748C77.1928 12.1525 78.2104 13.1537 78.908 14.3696C79.625 15.6052 79.9838 17.0017 79.9838 18.5591C79.9838 20.1164 79.625 21.517 78.908 22.7608C78.2129 23.9823 77.1941 24.9884 75.9645 25.6687C74.7067 26.352 73.2978 26.71 71.8662 26.71C70.4346 26.71 69.0269 26.352 67.7691 25.6687ZM74.6716 23.7222C75.5016 23.2358 76.1734 22.5204 76.6069 21.6617C77.0749 20.7687 77.3083 19.7345 77.3083 18.5591C77.3083 17.3836 77.0749 16.3535 76.6069 15.4687C76.1728 14.6164 75.5003 13.9086 74.6716 13.431C73.8485 12.9567 72.9094 12.7196 71.8561 12.7196C70.8022 12.7196 69.8638 12.9561 69.0401 13.4292C68.2114 13.9072 67.5389 14.6158 67.1048 15.4687C66.6374 16.3541 66.4034 17.3842 66.4034 18.5591C66.4034 19.7339 66.6374 20.7682 67.1048 21.6617C67.5382 22.5204 68.2101 23.2358 69.0401 23.7222C69.8644 24.2029 70.8029 24.4433 71.8561 24.4433C72.9088 24.4433 73.8479 24.2029 74.6716 23.7222Z" fill="white"/>
<path d="M83.66 0H81.0503V10.4316H83.66V0Z" fill="white"/>
<path d="M96.4161 6.36483L94.5711 4.51953L87.195 11.8958L89.04 13.7411L96.4161 6.36483Z" fill="white"/>
<path d="M100.936 19.887V17.2773H90.5048V19.887H100.936Z" fill="white"/>
<path d="M94.5724 32.6444L96.4174 30.7991L89.0412 23.4229L87.1956 25.2682L94.5724 32.6444Z" fill="white"/>
<path d="M83.66 26.71H81.0503V37.1415H83.66V26.71Z" fill="white"/>
</g>
</g>
<defs>
<clipPath id="clip0_1540_310">
<rect width="101" height="37.6398" fill="white"/>
</clipPath>
</defs>
</svg>
