<svg width="101" height="45" viewBox="0 0 101 45" fill="none" xmlns="http://www.w3.org/2000/svg">
<path d="M22.4906 13.5267L23.8338 12.4573L11.0048 0L10.029 0.484301C6.04258 2.47038 3.44697 5.09201 2.31745 8.2896C1.79365 9.80481 1.71479 11.437 2.0901 12.9952C2.46539 14.5533 3.27933 15.9729 4.43665 17.088L5.64762 18.2582C6.68955 19.4224 7.13983 20.6858 7.03072 22.1219C6.6834 26.4897 1.39385 30.7888 1.34468 30.8301L0 31.8996L12.8305 44.3583L13.8048 43.8741C16.5311 42.5189 18.6257 40.8399 20.0348 38.8844C22.6965 35.1842 22.2048 29.9745 18.8884 26.7678L18.1785 26.1017C17.138 24.9391 16.6878 23.6741 16.7954 22.2396C17.1488 17.8686 22.4384 13.5741 22.4906 13.5267ZM17.5452 37.123C16.5925 38.4475 15.1971 39.633 13.396 40.6566L4.53194 32.06C6.39449 30.2695 9.66474 26.5891 10.0643 22.5115L16.2667 28.5247L16.2867 28.5033L16.7477 28.954C18.9884 31.125 19.3279 34.6358 17.5452 37.123ZM13.7649 21.8576L7.2935 15.5846L7.27968 15.5984L6.57123 14.9094C5.82977 14.1991 5.30732 13.2934 5.06508 12.2984C4.82285 11.3035 4.87086 10.2606 5.2035 9.29181C5.97189 7.1117 7.73609 5.23562 10.4454 3.70328L19.2941 12.2969C17.43 14.0889 14.1552 17.7754 13.7649 21.8576Z" fill="#1F2729"/>
<path d="M51.2441 19.3171C48.0169 19.3171 44.9433 21.4407 44.3732 25.0477C43.7201 24.2472 42.7657 23.6575 41.587 23.2144L39.4355 22.3069C37.7451 21.6775 36.5694 21.2924 36.5694 20.2399C36.5694 19.2178 37.4592 18.6785 38.7702 18.6785C40.4898 18.6785 41.587 19.1597 42.8256 20.0443L44.8312 17.5495C43.2489 16.0746 41.1604 15.2551 38.9914 15.2578C35.1679 15.2578 32.537 17.5724 32.537 20.4706C32.537 23.0158 34.3166 24.5023 36.2668 25.2386L38.558 26.2119C40.2239 26.9054 41.2689 27.2095 41.2689 28.4683C41.2689 29.3239 40.4883 29.9748 38.7993 29.9748C37.1104 29.9748 35.4522 29.2322 34.1214 28.149L31.8378 30.8745C33.6874 32.4984 36.0689 33.3963 38.5365 33.4C42.0127 33.4 44.2764 31.7958 45.0494 29.6707C46.2512 31.9913 48.7376 33.2777 51.7005 33.2777C53.5805 33.2531 55.4175 32.7145 57.0101 31.721L54.9139 29.7012C54.0721 30.0702 53.163 30.2631 52.243 30.268C50.0469 30.268 48.6269 29.4033 48.2351 27.4769H57.3834C57.4849 26.8928 57.5403 26.3018 57.5495 25.7092C57.5495 22.09 55.3749 19.3171 51.2441 19.3171ZM51.3763 22.3207C52.913 22.3207 53.8243 23.1808 54.0271 24.8292H48.2812C48.6853 23.1594 49.8179 22.3207 51.3763 22.3207Z" fill="#1F2729"/>
<path d="M94.2985 19.316C90.7101 19.316 87.3292 21.9315 87.3292 26.2887C87.3092 27.5122 87.6004 28.7209 88.176 29.8026C87.5398 30.055 86.8631 30.1917 86.1782 30.2059C85.061 30.2059 83.9959 29.6711 83.9959 28.0257V15.4707H80.0234V17.3712V27.8684C80.0234 31.2462 81.7769 33.3989 85.15 33.3989C86.8052 33.3989 87.7472 33.133 89.1226 32.6869H89.1318H89.1456L90.4887 32.1919C91.6859 32.8992 93.1536 33.2812 94.7549 33.2812C96.6369 33.2561 98.4756 32.7158 100.069 31.7199L97.9728 29.7002C97.132 30.0687 96.224 30.2616 95.305 30.2669C93.109 30.2669 91.689 29.4023 91.2971 27.4757H100.438C100.539 26.8918 100.595 26.3007 100.604 25.7082C100.604 22.0888 98.4293 19.316 94.2985 19.316ZM94.4306 22.3195C95.9674 22.3195 96.8786 23.1797 97.0816 24.8281H91.3402C91.7398 23.1584 92.8707 22.3195 94.4306 22.3195Z" fill="#1F2729"/>
<path d="M65.7567 30.1739C63.8019 30.1739 62.9413 29.4099 62.9413 27.3857V22.8299H68.7349L65.7136 19.6843H62.9474V15.5594H62.9213V15.541H58.9473V26.2933H58.9657V27.4284C58.9657 30.9209 60.4809 33.2691 64.744 33.2691C66.5173 33.2691 67.9174 32.9054 69.1023 32.5541L66.5881 30.1189C66.3122 30.1531 66.0346 30.1714 65.7567 30.1739Z" fill="#1F2729"/>
<path d="M76.6884 30.1739C74.7351 30.1739 73.8745 29.4099 73.8745 27.3857V22.8299H79.6681L76.6469 19.6843H73.8807V15.5594H73.8546V15.541H69.8805V26.2933H69.8989V27.4284C69.8989 30.9209 71.4141 33.2691 75.6772 33.2691C77.4506 33.2691 78.8506 32.9054 80.0339 32.5541L77.5213 30.1189C77.2449 30.153 76.9668 30.1713 76.6884 30.1739Z" fill="#1F2729"/>
</svg>
